<svg xmlns="http://www.w3.org/2000/svg" viewBox="0 0 64 64" fill="none">
  <defs>
    <linearGradient id="adhdAgendaFrame" x1="8" y1="6" x2="58" y2="58" gradientUnits="userSpaceOnUse">
      <stop offset="0" stop-color="#1E7BD4"/>
      <stop offset="0.58" stop-color="#2698DA"/>
      <stop offset="1" stop-color="#1CB5A9"/>
    </linearGradient>
    <linearGradient id="adhdAgendaPaper" x1="16" y1="14" x2="48" y2="48" gradientUnits="userSpaceOnUse">
      <stop offset="0" stop-color="#FFFFFF"/>
      <stop offset="1" stop-color="#EEF8FC"/>
    </linearGradient>
    <linearGradient id="adhdAgendaCapsule" x1="30" y1="35" x2="46" y2="45" gradientUnits="userSpaceOnUse">
      <stop offset="0" stop-color="#1E7BD4"/>
      <stop offset="1" stop-color="#1CB5A9"/>
    </linearGradient>
  </defs>
  <rect x="2.5" y="2.5" width="59" height="59" rx="18" fill="#F6FBFE"/>
  <rect x="2.5" y="2.5" width="59" height="59" rx="18" stroke="url(#adhdAgendaFrame)" stroke-width="2.2"/>
  <circle cx="47" cy="18" r="10" fill="#E3F6F2"/>
  <circle cx="17" cy="47" r="9" fill="#E5F1FC"/>
  <rect x="15" y="12" width="34" height="40" rx="12" fill="url(#adhdAgendaPaper)" stroke="url(#adhdAgendaFrame)" stroke-width="2.2"/>
  <path d="M24 12v6" stroke="#1E7BD4" stroke-width="2.4" stroke-linecap="round"/>
  <path d="M40 12v6" stroke="#1E7BD4" stroke-width="2.4" stroke-linecap="round"/>
  <path d="M22 24h8" stroke="#79A9D1" stroke-width="2.2" stroke-linecap="round"/>
  <path d="M22 31h10" stroke="#79A9D1" stroke-width="2.2" stroke-linecap="round"/>
  <path d="M22 38h7" stroke="#79A9D1" stroke-width="2.2" stroke-linecap="round"/>
  <path d="m33 26 3 3 6-7" stroke="#1CB58F" stroke-width="2.8" stroke-linecap="round" stroke-linejoin="round"/>
  <rect x="30" y="35" width="16" height="10" rx="5" fill="url(#adhdAgendaCapsule)"/>
  <path d="M38 35v10" stroke="#DDF9F3" stroke-width="1.6"/>
  <path d="M18 47c4-3.5 6.7-5.3 9.3-5.3 2.3 0 3.5 1.3 5.7 1.3 2.2 0 3.8-1.2 6.5-4.2" stroke="#1E7BD4" stroke-width="2.4" stroke-linecap="round" stroke-linejoin="round"/>
</svg>
